<svg width="65" height="64" viewBox="0 0 65 64" fill="none" xmlns="http://www.w3.org/2000/svg">
<path d="M7.62503 45.86C7.62609 46.9577 8.06261 48.0101 8.83878 48.7862C9.61495 49.5624 10.6674 49.9989 11.765 50H12.007C12.9666 50 13.8868 49.6188 14.5653 48.9403C15.2439 48.2618 15.625 47.3415 15.625 46.382V43.518C15.624 43.168 15.6925 42.8213 15.8263 42.4979C15.9602 42.1745 16.1569 41.8809 16.405 41.634C16.7931 41.2482 17.1007 40.7893 17.3102 40.2837C17.5196 39.7782 17.6266 39.2362 17.625 38.689C17.6278 37.3906 17.245 36.1206 16.525 35.04C15.8512 34.0292 14.8034 33.3275 13.6122 33.0891C12.421 32.8508 11.1839 33.0953 10.173 33.769L9.22503 34.4C8.49577 34.8861 7.9692 35.6219 7.74435 36.469C7.5195 37.3161 7.61185 38.2162 8.00403 39C8.41051 39.8151 8.62304 40.7132 8.62503 41.624C8.62409 42.3737 8.44953 43.113 8.11503 43.784C7.79336 44.4288 7.62563 45.1394 7.62503 45.86ZM9.79303 38.1C9.61956 37.7527 9.5788 37.354 9.67841 36.9788C9.77802 36.6035 10.0111 36.2775 10.334 36.062L11.278 35.433C11.8475 35.0537 12.5443 34.916 13.2153 35.0503C13.8862 35.1846 14.4764 35.5797 14.856 36.149C15.3582 36.9008 15.6258 37.7849 15.625 38.689C15.6259 38.9734 15.5703 39.2552 15.4615 39.518C15.3526 39.7808 15.1927 40.0194 14.991 40.22C14.5566 40.6521 14.2121 41.166 13.9776 41.7321C13.7432 42.2983 13.6233 42.9053 13.625 43.518V46.382C13.6247 46.6333 13.5662 46.8811 13.454 47.106C13.3204 47.3752 13.114 47.6017 12.8582 47.7597C12.6025 47.9177 12.3076 48.0009 12.007 48H11.765C11.1976 47.9995 10.6536 47.7738 10.2524 47.3726C9.8512 46.9714 9.62556 46.4274 9.62503 45.86C9.62579 45.4498 9.72127 45.0453 9.90403 44.678C10.377 43.7293 10.6238 42.684 10.625 41.624C10.6234 40.4009 10.3386 39.1947 9.79303 38.1Z" fill="#1B1717"/>
<path d="M45.625 27C43.1486 26.9998 40.6992 27.514 38.432 28.51C37.9708 28.1813 37.4193 28.0032 36.853 28C36.0421 27.9971 35.2457 27.7855 34.5402 27.3857C33.8348 26.9858 33.2441 26.4112 32.825 25.717L31.82 24.043C31.693 23.8337 31.6256 23.5938 31.625 23.349C31.6242 22.461 31.2711 21.6097 30.6432 20.9818C30.0153 20.3539 29.164 20.0008 28.276 20H26.097C25.942 19.9995 25.7891 19.9635 25.65 19.895C25.3414 19.7416 25.0818 19.505 24.9007 19.2118C24.7196 18.9186 24.6241 18.5806 24.625 18.236C24.6265 16.9208 24.9329 15.6239 25.52 14.447C25.6137 14.2592 25.646 14.0468 25.6122 13.8397C25.5785 13.6325 25.4805 13.4413 25.332 13.293L23.746 11.707C23.688 11.6491 23.6485 11.5753 23.6325 11.4949C23.6164 11.4145 23.6246 11.3312 23.656 11.2555C23.6874 11.1798 23.7405 11.1151 23.8087 11.0696C23.8769 11.0241 23.957 10.9999 24.039 11H26.125C27.0533 11 27.9435 10.6312 28.5999 9.97487C29.2563 9.31849 29.625 8.42825 29.625 7.5C29.625 6.57174 29.2563 5.6815 28.5999 5.02512C27.9435 4.36875 27.0533 4 26.125 4C25.7805 4.0012 25.4392 3.93392 25.1209 3.80208C24.8026 3.67023 24.5137 3.47645 24.271 3.232L23.471 2.432C22.9248 1.88489 22.2564 1.47554 21.5208 1.23775C20.7852 0.999961 20.0036 0.940549 19.2406 1.06442C18.4775 1.18829 17.7549 1.4919 17.1323 1.95016C16.5097 2.40843 16.005 3.00822 15.66 3.7L13.225 8.562C13.1592 8.69391 13.0579 8.80481 12.9324 8.88221C12.807 8.9596 12.6624 9.00039 12.515 9C12.1739 9.00048 11.8414 8.89337 11.5647 8.6939C11.288 8.49442 11.0813 8.21276 10.974 7.889C10.8252 7.44219 10.5647 7.04084 10.2171 6.72309C9.86953 6.40533 9.44649 6.18173 8.98817 6.07351C8.52984 5.96529 8.05146 5.97606 7.59847 6.10478C7.14548 6.23351 6.73292 6.47593 6.4 6.809L5.537 7.672C5.43321 7.77601 5.30991 7.85852 5.17418 7.9148C5.03845 7.97109 4.89294 8.00004 4.746 8C3.9185 8.00079 3.12513 8.32986 2.54 8.91499C1.95487 9.50012 1.62579 10.2935 1.625 11.121V18.464C1.6247 19.3612 1.89054 20.2384 2.38889 20.9845C2.88725 21.7306 3.59571 22.3121 4.42465 22.6554C5.25358 22.9987 6.16573 23.0884 7.04568 22.9132C7.92562 22.738 8.73382 22.3057 9.368 21.671L11.558 19.481C11.7561 19.2831 12.0015 19.1391 12.2709 19.0626C12.5403 18.9862 12.8248 18.9798 13.0973 19.0441C13.3699 19.1084 13.6215 19.2413 13.8283 19.4301C14.0351 19.6189 14.1902 19.8574 14.279 20.123L14.471 20.7C16.6193 27.1432 20.8533 32.6868 26.504 36.455L28.999 38.118C28.0866 40.3141 27.6195 42.6696 27.625 45.0477C27.6305 47.4258 28.1084 49.7791 29.031 51.971C28.327 52.023 27.6195 51.9378 26.948 51.72L25.89 51.368C25.1597 51.1242 24.3949 50.9999 23.625 51C22.8294 51 22.0663 51.3161 21.5037 51.8787C20.9411 52.4413 20.625 53.2043 20.625 54C20.625 54.7956 20.9411 55.5587 21.5037 56.1213C22.0663 56.6839 22.8294 57 23.625 57C24.7065 57.002 25.7586 57.3527 26.625 58L28.625 59.5C28.6216 60.3909 28.959 61.2493 29.568 61.8995C30.1769 62.5497 31.0114 62.9426 31.9006 62.9975C32.7898 63.0525 33.6663 62.7654 34.3507 62.1951C35.0351 61.6248 35.4756 60.8145 35.582 59.93C37.916 61.5019 40.5861 62.5046 43.3778 62.8577C46.1696 63.2108 49.0052 62.9045 51.6571 61.9633C54.309 61.0221 56.7033 59.4722 58.6478 57.4382C60.5923 55.4041 62.0328 52.9425 62.8537 50.2509C63.6746 47.5593 63.853 44.7127 63.3745 41.9397C62.8961 39.1667 61.7742 36.5445 60.0989 34.2836C58.4236 32.0226 56.2415 30.186 53.7278 28.9211C51.2142 27.6561 48.439 26.9982 45.625 27ZM29.625 45C29.6292 42.003 30.4751 39.0674 32.0663 36.5277C33.6575 33.9879 35.93 31.9462 38.625 30.635V59.365C35.93 58.0538 33.6575 56.012 32.0663 53.4723C30.4751 50.9326 29.6292 47.997 29.625 45ZM27.614 34.791C22.3327 31.2702 18.3755 26.0895 16.368 20.068L16.176 19.491C15.9796 18.9019 15.6359 18.3728 15.1776 17.9539C14.7192 17.5349 14.1613 17.2402 13.557 17.0975C12.9526 16.9548 12.3218 16.969 11.7245 17.1387C11.1271 17.3084 10.5831 17.6279 10.144 18.067L7.954 20.257C7.59934 20.6116 7.1475 20.853 6.65563 20.9508C6.16375 21.0487 5.65391 20.9984 5.19058 20.8065C4.72724 20.6146 4.3312 20.2896 4.05254 19.8727C3.77387 19.4557 3.62509 18.9655 3.625 18.464V11.121C3.62527 10.8238 3.74345 10.5388 3.95363 10.3286C4.1638 10.1185 4.44877 10.0003 4.746 10C5.15604 10.0012 5.56224 9.921 5.94107 9.76411C6.31991 9.60722 6.66386 9.37674 6.953 9.086L7.816 8.223C7.91088 8.13781 8.025 8.07689 8.14858 8.04546C8.27216 8.01402 8.40151 8.013 8.52557 8.04249C8.64962 8.07199 8.76468 8.1311 8.86089 8.21479C8.9571 8.29847 9.0316 8.40422 9.078 8.523C9.31822 9.24488 9.77977 9.87273 10.3971 10.3174C11.0145 10.762 11.7562 11.0009 12.517 11C13.0363 11.0023 13.5458 10.8589 13.9878 10.5862C14.4297 10.3134 14.7862 9.92222 15.017 9.457L17.451 4.589C17.6549 4.18235 17.9524 3.8299 18.3191 3.56061C18.6858 3.29133 19.1111 3.11289 19.5601 3.03997C20.0091 2.96705 20.4691 3.00173 20.9021 3.14116C21.3351 3.28058 21.7289 3.52078 22.051 3.842L22.851 4.642C23.2794 5.07416 23.7895 5.41679 24.3516 5.64993C24.9136 5.88307 25.5165 6.00207 26.125 6C26.5228 6 26.9044 6.15803 27.1857 6.43934C27.467 6.72064 27.625 7.10217 27.625 7.5C27.625 7.89782 27.467 8.27935 27.1857 8.56066C26.9044 8.84196 26.5228 9 26.125 9H24.039C23.5615 8.99998 23.0948 9.14155 22.6978 9.4068C22.3008 9.67205 21.9914 10.0491 21.8087 10.4902C21.626 10.9313 21.5781 11.4167 21.6713 11.885C21.7645 12.3533 21.9944 12.7834 22.332 13.121L23.427 14.221C22.8999 15.4954 22.6281 16.8609 22.627 18.24C22.6246 18.9564 22.8229 19.6592 23.1996 20.2686C23.5762 20.8781 24.1161 21.3698 24.758 21.688C25.1743 21.8938 25.6326 22.0005 26.097 22H28.276C28.6337 22.0003 28.9767 22.1425 29.2296 22.3954C29.4825 22.6483 29.6247 22.9913 29.625 23.349C29.625 23.9564 29.7902 24.5523 30.103 25.073L31.103 26.747C31.6126 27.5884 32.3003 28.308 33.1179 28.8552C33.9354 29.4023 34.8628 29.7637 35.835 29.914C33.3582 31.525 31.3131 33.7174 29.878 36.3L27.614 34.791ZM33.625 59.5C33.625 59.8978 33.467 60.2794 33.1857 60.5607C32.9044 60.842 32.5228 61 32.125 61C31.7272 61 31.3456 60.842 31.0643 60.5607C30.783 60.2794 30.625 59.8978 30.625 59.5C30.6243 59.1896 30.5517 58.8836 30.4129 58.606C30.2741 58.3284 30.0729 58.0868 29.825 57.9L27.825 56.4C26.612 55.4938 25.1391 55.0029 23.625 55C23.3598 55 23.1054 54.8946 22.9179 54.7071C22.7304 54.5196 22.625 54.2652 22.625 54C22.625 53.7348 22.7304 53.4804 22.9179 53.2929C23.1054 53.1054 23.3598 53 23.625 53C24.1801 52.9998 24.7315 53.0893 25.258 53.265L26.315 53.618C27.4969 54.0046 28.7566 54.0902 29.98 53.867C30.9445 55.5569 32.1753 57.0801 33.625 58.378V59.5ZM40.625 60.189V29.811C43.8399 28.741 47.3131 28.7295 50.535 29.778L50.615 60.192C47.3725 61.2713 43.8675 61.2713 40.625 60.192V60.189ZM52.613 59.371L52.537 30.592C55.251 31.8875 57.5439 33.9232 59.1517 36.4648C60.7595 39.0063 61.6167 41.9502 61.6246 44.9576C61.6326 47.965 60.7909 50.9134 59.1966 53.4634C57.6023 56.0134 55.3201 58.0612 52.613 59.371Z" fill="#1B1717"/>
</svg>
