<svg width="65" height="64" viewBox="0 0 65 64" fill="none" xmlns="http://www.w3.org/2000/svg">
<path d="M41.375 41H43.375V43H41.375V41ZM37.375 41H39.375V43H37.375V41ZM33.375 41H35.375V43H33.375V41ZM39.375 38H41.375V40H39.375V38ZM35.375 38H37.375V40H35.375V38ZM31.375 38H33.375V40H31.375V38ZM41.375 35H43.375V37H41.375V35ZM37.375 35H39.375V37H37.375V35ZM33.375 35H35.375V37H33.375V35ZM39.375 32H41.375V34H39.375V32Z" fill="#1B1717"/>
<path d="M55.785 20L61.046 14.739C61.7861 14.0029 62.373 13.1274 62.7728 12.1631C63.1725 11.1988 63.3772 10.1649 63.375 9.121C63.375 8.50369 63.192 7.90023 62.8491 7.38694C62.5062 6.87365 62.0187 6.47358 61.4484 6.23734C60.8781 6.0011 60.2505 5.9393 59.6451 6.05974C59.0396 6.18018 58.4835 6.47747 58.047 6.914L57.087 7.874C56.7309 8.23211 56.3074 8.51603 55.8408 8.70931C55.3743 8.90259 54.874 9.00139 54.369 9C53.283 8.99626 52.2176 9.29689 51.2938 9.86779C50.3699 10.4387 49.6245 11.257 49.142 12.23L47.994 14.53C47.9082 14.7029 47.7664 14.8416 47.5917 14.9236C47.417 15.0055 47.2197 15.0259 47.0319 14.9814C46.8441 14.9368 46.677 14.83 46.5577 14.6783C46.4384 14.5266 46.374 14.339 46.375 14.146C46.3781 13.0167 46.1571 11.898 45.7249 10.8547C45.2927 9.81143 44.6578 8.86424 43.857 8.068L42.637 6.848C42.0524 6.26025 41.357 5.79428 40.5911 5.47707C39.8252 5.15986 39.004 4.99771 38.175 5C37.1974 4.99997 36.2418 4.71009 35.429 4.167C34.2617 3.39321 32.8894 2.98675 31.489 3C27.7923 2.9964 24.106 2.60966 20.489 1.846L18.595 1.446C15.8532 0.869191 13.023 0.853543 10.275 1.4C7.76849 1.90683 5.51386 3.26357 3.89222 5.24088C2.27058 7.21818 1.38141 9.69477 1.375 12.252V22.52C1.37649 24.0604 1.74434 25.5783 2.44819 26.9484C3.15205 28.3186 4.17171 29.5017 5.423 30.4C7.78249 32.0967 10.6168 33.0065 13.523 33C15.2186 33.0007 16.8945 33.3637 18.4384 34.0648C19.9823 34.7658 21.3586 35.7888 22.475 37.065L24.648 39.548C25.046 40.0031 25.5365 40.368 26.0868 40.6184C26.637 40.8688 27.2344 40.9989 27.839 41C27.0755 44.3456 27.2845 47.8397 28.4415 51.0704C29.5984 54.3011 31.6551 57.1336 34.3689 59.2339C37.0827 61.3342 40.3405 62.6146 43.7581 62.9243C47.1758 63.234 50.6107 62.5599 53.6578 60.9816C56.7049 59.4034 59.2372 56.9867 60.956 54.0166C62.6749 51.0465 63.5085 47.6468 63.3588 44.2184C63.209 40.7901 62.0821 37.4761 60.1108 34.6671C58.1395 31.8582 55.4061 29.6716 52.233 28.365C52.9112 27.7301 53.4514 26.9623 53.82 26.1095C54.1885 25.2566 54.3774 24.337 54.375 23.408C54.3726 22.7749 54.496 22.1476 54.7381 21.5625C54.9801 20.9775 55.336 20.4464 55.785 20ZM35.375 32.53V34H37.375V32H36.083C36.5842 31.6367 37.1061 31.3028 37.646 31H39.375V30.178C40.0266 29.9172 40.6947 29.6997 41.375 29.527V31H43.375V29.139C43.705 29.097 44.039 29.072 44.375 29.051V32H43.375V34H44.375V38H43.375V40H44.375V44H29.426C29.447 43.664 29.472 43.33 29.514 43H31.375V41H29.902C30.7664 37.6609 32.686 34.6902 35.375 32.53ZM54.667 32H46.375V29.051C49.3615 29.2337 52.2358 30.2559 54.667 32ZM60.567 40H46.375V38H59.74C60.0599 38.6471 60.3352 39.3153 60.564 40H60.567ZM30.186 50H60.564C60.3352 50.6846 60.0599 51.3529 59.74 52H31.01C30.6901 51.3529 30.4148 50.6846 30.186 50ZM29.667 48C29.5444 47.3391 29.4639 46.6711 29.426 46H61.326C61.2881 46.6711 61.2076 47.3391 61.085 48H29.667ZM46.375 44V42H61.083C61.2056 42.6609 61.2861 43.3289 61.324 44H46.375ZM39.86 60C38.5171 59.5056 37.2467 58.8329 36.083 58H54.667C53.5033 58.8329 52.2329 59.5056 50.89 60H39.86ZM56.96 56H33.786C33.1902 55.3781 32.6455 54.7093 32.157 54H58.593C58.1045 54.7093 57.5598 55.3781 56.964 56H56.96ZM58.589 36H46.375V34H56.964C57.5598 34.6219 58.1045 35.2907 58.593 36H58.589ZM52.375 23.408C52.3765 24.264 52.148 25.1048 51.7133 25.8422C51.2786 26.5797 50.6537 27.1868 49.904 27.6C45.563 26.446 40.9467 26.9683 36.9733 29.063C33 31.1577 29.9606 34.6713 28.46 38.905C28.2623 38.9644 28.0574 38.9964 27.851 39C27.5301 39.0001 27.2129 38.9315 26.9208 38.7989C26.6286 38.6662 26.3682 38.4726 26.157 38.231L23.984 35.748C22.6791 34.2564 21.0703 33.061 19.2656 32.2421C17.4608 31.4232 15.5018 30.9997 13.52 31C11.0327 31.0047 8.60715 30.2255 6.588 28.773C5.59482 28.0603 4.78545 27.1216 4.22677 26.0343C3.66809 24.947 3.37613 23.7424 3.375 22.52V12.252C3.37952 10.1574 4.1073 8.12855 5.43528 6.50867C6.76325 4.88878 8.60992 3.77724 10.663 3.362C13.1439 2.86779 15.6992 2.88072 18.175 3.4L20.069 3.8C23.8522 4.59858 27.7084 5.00075 31.575 5C32.5529 4.99917 33.5089 5.28874 34.322 5.832C35.4627 6.59356 36.8035 7.00001 38.175 7C38.7413 6.99831 39.3022 7.10898 39.8254 7.32561C40.3486 7.54224 40.8237 7.86051 41.223 8.262L42.443 9.482C43.0575 10.093 43.5446 10.8199 43.8762 11.6205C44.2079 12.421 44.3774 13.2794 44.375 14.146C44.3749 14.789 44.592 15.4132 44.991 15.9174C45.3901 16.4216 45.9477 16.7763 46.5735 16.924C47.1993 17.0716 47.8566 17.0037 48.439 16.7311C49.0213 16.4585 49.4946 15.9972 49.782 15.422L50.931 13.122C51.2485 12.4824 51.7389 11.9445 52.3466 11.5694C52.9543 11.1944 53.6549 10.9971 54.369 11C55.1368 11.0023 55.8974 10.8522 56.6067 10.5583C57.316 10.2644 57.9599 9.83264 58.501 9.288L59.461 8.328C59.6178 8.17109 59.8176 8.06422 60.0351 8.02091C60.2527 7.9776 60.4782 7.9998 60.6831 8.0847C60.888 8.1696 61.0631 8.31338 61.1863 8.49785C61.3095 8.68232 61.3751 8.89919 61.375 9.121C61.3771 9.9028 61.2241 10.6773 60.9249 11.3996C60.6257 12.1219 60.1863 12.7776 59.632 13.329L54.375 18.59C53.7393 19.2207 53.2352 19.9714 52.8919 20.7985C52.5486 21.6255 52.3729 22.5125 52.375 23.408Z" fill="#1B1717"/>
</svg>
